<svg width="256" height="256" viewBox="0 0 256 256" fill="none" xmlns="http://www.w3.org/2000/svg">
<rect x="24" y="42" width="212" height="169" rx="16" stroke="#343537" stroke-width="3"/>
<line x1="24" y1="64.5" x2="236" y2="64.5" stroke="#343537" stroke-width="3"/>
<path d="M41.1998 49.1868C43.4089 49.1868 45.1998 50.9776 45.1998 53.1868C45.1998 55.3959 43.4089 57.1868 41.1998 57.1868C38.9907 57.1868 37.1998 55.3959 37.1998 53.1868C37.1998 50.9776 38.9907 49.1868 41.1998 49.1868Z" stroke="#FF5470" stroke-width="3"/>
<path d="M56.5 49.5C58.7091 49.5 60.5 51.2909 60.5 53.5C60.5 55.7091 58.7091 57.5 56.5 57.5C54.2909 57.5 52.5 55.7091 52.5 53.5C52.5 51.2909 54.2909 49.5 56.5 49.5Z" stroke="#1E61F3" stroke-width="3"/>
<path d="M177 79L177 195" stroke="#343537" stroke-width="3" stroke-linecap="round"/>
<rect x="187.5" y="80.5" width="41" height="13" rx="6.5" stroke="#343537" stroke-width="3"/>
<rect x="187.5" y="105.5" width="41" height="13" rx="6.5" stroke="#343537" stroke-width="3"/>
<rect x="187.5" y="130.5" width="41" height="13" rx="6.5" stroke="#343537" stroke-width="3"/>
<rect x="187.5" y="155.5" width="41" height="13" rx="6.5" stroke="#343537" stroke-width="3"/>
<rect x="187.5" y="180.5" width="41" height="13" rx="6.5" stroke="#343537" stroke-width="3"/>
<path d="M193 87H223" stroke="#1E61F3" stroke-width="3" stroke-linecap="round"/>
<path d="M62 95H162" stroke="#343537" stroke-width="3" stroke-linecap="round"/>
<path d="M36 112H162" stroke="#343537" stroke-width="3" stroke-linecap="round"/>
<path d="M36 129H162" stroke="#343537" stroke-width="3" stroke-linecap="round"/>
<path d="M36 145H162" stroke="#343537" stroke-width="3" stroke-linecap="round"/>
<path d="M36 162H162" stroke="#343537" stroke-width="3" stroke-linecap="round"/>
<path d="M36 179H162" stroke="#343537" stroke-width="3" stroke-linecap="round"/>
<path d="M118.827 51.4545L116.538 58H114.493L112.205 51.4545H114.122L115.482 56.1378H115.55L116.905 51.4545H118.827ZM123.953 55.2131V51.4545H125.768V58H124.026V56.8111H123.957C123.81 57.1946 123.564 57.5028 123.22 57.7358C122.879 57.9687 122.463 58.0852 121.972 58.0852C121.534 58.0852 121.149 57.9858 120.817 57.7869C120.484 57.5881 120.224 57.3054 120.037 56.9389C119.852 56.5724 119.759 56.1335 119.756 55.6222V51.4545H121.571V55.2983C121.574 55.6847 121.678 55.9901 121.882 56.2145C122.087 56.4389 122.361 56.5511 122.705 56.5511C122.923 56.5511 123.128 56.5014 123.318 56.402C123.509 56.2997 123.662 56.1491 123.778 55.9503C123.898 55.7514 123.956 55.5057 123.953 55.2131ZM130.203 58.1278C129.53 58.1278 128.951 57.9915 128.465 57.7188C127.982 57.4432 127.61 57.054 127.348 56.5511C127.087 56.0455 126.956 55.4474 126.956 54.7571C126.956 54.0838 127.087 53.4929 127.348 52.9844C127.61 52.4759 127.978 52.0795 128.452 51.7955C128.929 51.5114 129.489 51.3693 130.131 51.3693C130.563 51.3693 130.965 51.4389 131.337 51.5781C131.712 51.7145 132.039 51.9205 132.317 52.196C132.598 52.4716 132.817 52.8182 132.973 53.2358C133.13 53.6506 133.208 54.1364 133.208 54.6932V55.1918H127.681V54.0668H131.499C131.499 53.8054 131.442 53.5739 131.328 53.3722C131.215 53.1705 131.057 53.0128 130.855 52.8991C130.657 52.7827 130.425 52.7244 130.161 52.7244C129.885 52.7244 129.641 52.7884 129.428 52.9162C129.218 53.0412 129.053 53.2102 128.934 53.4233C128.814 53.6335 128.753 53.8679 128.75 54.1264V55.196C128.75 55.5199 128.81 55.7997 128.929 56.0355C129.051 56.2713 129.223 56.4531 129.445 56.581C129.667 56.7088 129.929 56.7727 130.233 56.7727C130.435 56.7727 130.62 56.7443 130.787 56.6875C130.955 56.6307 131.098 56.5455 131.218 56.4318C131.337 56.3182 131.428 56.179 131.49 56.0142L133.169 56.125C133.084 56.5284 132.909 56.8807 132.645 57.1818C132.384 57.4801 132.046 57.7131 131.631 57.8807C131.219 58.0455 130.743 58.1278 130.203 58.1278ZM137.601 58.1193C136.965 58.1193 136.398 58.0099 135.901 57.7912C135.407 57.5696 135.016 57.2656 134.729 56.8793C134.445 56.4901 134.299 56.0412 134.29 55.5327H136.148C136.159 55.7457 136.229 55.9332 136.357 56.0952C136.488 56.2543 136.661 56.3778 136.877 56.4659C137.093 56.554 137.336 56.598 137.605 56.598C137.887 56.598 138.135 56.5483 138.351 56.4489C138.567 56.3494 138.736 56.2116 138.858 56.0355C138.98 55.8594 139.042 55.6562 139.042 55.4261C139.042 55.1932 138.976 54.9872 138.846 54.8082C138.718 54.6264 138.533 54.4844 138.292 54.3821C138.053 54.2798 137.769 54.2287 137.439 54.2287H136.625V52.8736H137.439C137.718 52.8736 137.963 52.8253 138.176 52.7287C138.392 52.6321 138.56 52.4986 138.679 52.3281C138.799 52.1548 138.858 51.9531 138.858 51.723C138.858 51.5043 138.806 51.3125 138.701 51.1477C138.598 50.9801 138.453 50.8494 138.266 50.7557C138.081 50.6619 137.865 50.6151 137.618 50.6151C137.368 50.6151 137.14 50.6605 136.932 50.7514C136.725 50.8395 136.559 50.9659 136.434 51.1307C136.309 51.2955 136.242 51.4886 136.233 51.7102H134.465C134.473 51.2074 134.617 50.7642 134.895 50.3807C135.174 49.9972 135.549 49.6974 136.02 49.4815C136.495 49.2628 137.03 49.1534 137.627 49.1534C138.229 49.1534 138.756 49.2628 139.208 49.4815C139.659 49.7003 140.01 49.9957 140.26 50.3679C140.513 50.7372 140.638 51.152 140.635 51.6122C140.638 52.1009 140.486 52.5085 140.179 52.8352C139.875 53.1619 139.479 53.3693 138.99 53.4574V53.5256C139.632 53.608 140.121 53.831 140.456 54.1946C140.794 54.5554 140.962 55.0071 140.959 55.5497C140.962 56.0469 140.819 56.4886 140.529 56.875C140.242 57.2614 139.846 57.5653 139.34 57.7869C138.834 58.0085 138.255 58.1193 137.601 58.1193ZM146.381 53.696V55.1364H142.401V53.696H146.381ZM150.885 58.1278C150.214 58.1278 149.638 57.9858 149.155 57.7017C148.675 57.4148 148.305 57.017 148.047 56.5085C147.791 56 147.663 55.4148 147.663 54.7528C147.663 54.0824 147.793 53.4943 148.051 52.9886C148.313 52.4801 148.683 52.0838 149.163 51.7997C149.643 51.5128 150.214 51.3693 150.876 51.3693C151.447 51.3693 151.947 51.473 152.376 51.6804C152.805 51.8878 153.145 52.179 153.395 52.554C153.645 52.929 153.783 53.3693 153.808 53.875H152.095C152.047 53.5483 151.919 53.2855 151.712 53.0866C151.507 52.8849 151.239 52.7841 150.906 52.7841C150.625 52.7841 150.379 52.8608 150.169 53.0142C149.962 53.1648 149.8 53.3849 149.683 53.6747C149.567 53.9645 149.509 54.3153 149.509 54.7273C149.509 55.1449 149.565 55.5 149.679 55.7926C149.795 56.0852 149.959 56.3082 150.169 56.4616C150.379 56.6151 150.625 56.6918 150.906 56.6918C151.114 56.6918 151.3 56.6491 151.464 56.5639C151.632 56.4787 151.77 56.3551 151.878 56.1932C151.989 56.0284 152.061 55.831 152.095 55.6009H153.808C153.78 56.1009 153.643 56.5412 153.399 56.9219C153.158 57.2997 152.824 57.5952 152.398 57.8082C151.972 58.0213 151.467 58.1278 150.885 58.1278ZM156.837 58.1236C156.419 58.1236 156.047 58.0511 155.721 57.9062C155.394 57.7585 155.135 57.5412 154.945 57.2543C154.757 56.9645 154.664 56.6037 154.664 56.1719C154.664 55.8082 154.73 55.5028 154.864 55.2557C154.998 55.0085 155.179 54.8097 155.409 54.6591C155.64 54.5085 155.901 54.3949 156.194 54.3182C156.489 54.2415 156.799 54.1875 157.123 54.1562C157.503 54.1165 157.81 54.0795 158.043 54.0455C158.276 54.0085 158.445 53.9545 158.55 53.8835C158.655 53.8125 158.708 53.7074 158.708 53.5682V53.5426C158.708 53.2727 158.623 53.0639 158.452 52.9162C158.284 52.7685 158.046 52.6946 157.736 52.6946C157.409 52.6946 157.15 52.767 156.956 52.9119C156.763 53.054 156.635 53.233 156.573 53.4489L154.894 53.3125C154.979 52.9148 155.147 52.571 155.397 52.2812C155.647 51.9886 155.969 51.7642 156.364 51.608C156.762 51.4489 157.222 51.3693 157.745 51.3693C158.108 51.3693 158.456 51.4119 158.789 51.4972C159.124 51.5824 159.421 51.7145 159.679 51.8935C159.941 52.0724 160.147 52.3026 160.297 52.5838C160.448 52.8622 160.523 53.196 160.523 53.5852V58H158.801V57.0923H158.75C158.645 57.2969 158.505 57.4773 158.328 57.6335C158.152 57.7869 157.941 57.9077 157.694 57.9957C157.446 58.081 157.161 58.1236 156.837 58.1236ZM157.357 56.8707C157.624 56.8707 157.86 56.8182 158.064 56.7131C158.269 56.6051 158.429 56.4602 158.546 56.2784C158.662 56.0966 158.721 55.8906 158.721 55.6605V54.9659C158.664 55.0028 158.586 55.0369 158.486 55.0682C158.39 55.0966 158.28 55.1236 158.158 55.1491C158.036 55.1719 157.914 55.1932 157.792 55.2131C157.669 55.2301 157.559 55.2457 157.459 55.2599C157.246 55.2912 157.06 55.3409 156.901 55.4091C156.742 55.4773 156.618 55.5696 156.53 55.6861C156.442 55.7997 156.398 55.9418 156.398 56.1122C156.398 56.3594 156.488 56.5483 156.667 56.679C156.848 56.8068 157.078 56.8707 157.357 56.8707ZM165.413 51.4545V52.8182H161.471V51.4545H165.413ZM162.366 49.8864H164.181V55.9886C164.181 56.1562 164.207 56.2869 164.258 56.3807C164.309 56.4716 164.38 56.5355 164.471 56.5724C164.565 56.6094 164.673 56.6278 164.795 56.6278C164.88 56.6278 164.966 56.6207 165.051 56.6065C165.136 56.5895 165.201 56.5767 165.247 56.5682L165.532 57.919C165.441 57.9474 165.314 57.9801 165.149 58.017C164.984 58.0568 164.784 58.081 164.548 58.0895C164.11 58.1065 163.727 58.0483 163.397 57.9148C163.071 57.7812 162.816 57.5739 162.635 57.2926C162.453 57.0114 162.363 56.6562 162.366 56.2273V49.8864ZM168.462 58.1236C168.044 58.1236 167.672 58.0511 167.346 57.9062C167.019 57.7585 166.76 57.5412 166.57 57.2543C166.382 56.9645 166.289 56.6037 166.289 56.1719C166.289 55.8082 166.355 55.5028 166.489 55.2557C166.623 55.0085 166.804 54.8097 167.034 54.6591C167.265 54.5085 167.526 54.3949 167.819 54.3182C168.114 54.2415 168.424 54.1875 168.748 54.1562C169.128 54.1165 169.435 54.0795 169.668 54.0455C169.901 54.0085 170.07 53.9545 170.175 53.8835C170.28 53.8125 170.333 53.7074 170.333 53.5682V53.5426C170.333 53.2727 170.248 53.0639 170.077 52.9162C169.909 52.7685 169.671 52.6946 169.361 52.6946C169.034 52.6946 168.775 52.767 168.581 52.9119C168.388 53.054 168.26 53.233 168.198 53.4489L166.519 53.3125C166.604 52.9148 166.772 52.571 167.022 52.2812C167.272 51.9886 167.594 51.7642 167.989 51.608C168.387 51.4489 168.847 51.3693 169.37 51.3693C169.733 51.3693 170.081 51.4119 170.414 51.4972C170.749 51.5824 171.046 51.7145 171.304 51.8935C171.566 52.0724 171.772 52.3026 171.922 52.5838C172.073 52.8622 172.148 53.196 172.148 53.5852V58H170.426V57.0923H170.375C170.27 57.2969 170.13 57.4773 169.953 57.6335C169.777 57.7869 169.566 57.9077 169.319 57.9957C169.071 58.081 168.786 58.1236 168.462 58.1236ZM168.982 56.8707C169.249 56.8707 169.485 56.8182 169.689 56.7131C169.894 56.6051 170.054 56.4602 170.171 56.2784C170.287 56.0966 170.346 55.8906 170.346 55.6605V54.9659C170.289 55.0028 170.211 55.0369 170.111 55.0682C170.015 55.0966 169.905 55.1236 169.783 55.1491C169.661 55.1719 169.539 55.1932 169.417 55.2131C169.294 55.2301 169.184 55.2457 169.084 55.2599C168.871 55.2912 168.685 55.3409 168.526 55.4091C168.367 55.4773 168.243 55.5696 168.155 55.6861C168.067 55.7997 168.023 55.9418 168.023 56.1122C168.023 56.3594 168.113 56.5483 168.292 56.679C168.473 56.8068 168.703 56.8707 168.982 56.8707ZM175.372 49.2727V58H173.556V49.2727H175.372ZM179.783 58.1278C179.121 58.1278 178.549 57.9872 178.066 57.706C177.586 57.4219 177.215 57.027 176.954 56.5213C176.692 56.0128 176.562 55.4233 176.562 54.7528C176.562 54.0767 176.692 53.4858 176.954 52.9801C177.215 52.4716 177.586 52.0767 178.066 51.7955C178.549 51.5114 179.121 51.3693 179.783 51.3693C180.445 51.3693 181.016 51.5114 181.496 51.7955C181.979 52.0767 182.352 52.4716 182.613 52.9801C182.874 53.4858 183.005 54.0767 183.005 54.7528C183.005 55.4233 182.874 56.0128 182.613 56.5213C182.352 57.027 181.979 57.4219 181.496 57.706C181.016 57.9872 180.445 58.1278 179.783 58.1278ZM179.792 56.7216C180.093 56.7216 180.344 56.6364 180.546 56.4659C180.748 56.2926 180.9 56.0568 181.002 55.7585C181.107 55.4602 181.16 55.1207 181.16 54.7401C181.16 54.3594 181.107 54.0199 181.002 53.7216C180.9 53.4233 180.748 53.1875 180.546 53.0142C180.344 52.8409 180.093 52.7543 179.792 52.7543C179.488 52.7543 179.232 52.8409 179.025 53.0142C178.82 53.1875 178.665 53.4233 178.56 53.7216C178.458 54.0199 178.407 54.3594 178.407 54.7401C178.407 55.1207 178.458 55.4602 178.56 55.7585C178.665 56.0568 178.82 56.2926 179.025 56.4659C179.232 56.6364 179.488 56.7216 179.792 56.7216ZM187.134 60.5909C186.546 60.5909 186.042 60.5099 185.621 60.348C185.204 60.1889 184.871 59.9716 184.624 59.696C184.377 59.4205 184.217 59.1108 184.143 58.767L185.822 58.5412C185.873 58.6719 185.954 58.794 186.065 58.9077C186.175 59.0213 186.322 59.1122 186.504 59.1804C186.688 59.2514 186.913 59.2869 187.177 59.2869C187.572 59.2869 187.897 59.1903 188.153 58.9972C188.411 58.8068 188.54 58.4872 188.54 58.0384V56.8409H188.464C188.384 57.0227 188.265 57.1946 188.106 57.3565C187.947 57.5185 187.742 57.6506 187.492 57.7528C187.242 57.8551 186.944 57.9062 186.597 57.9062C186.106 57.9062 185.658 57.7926 185.255 57.5653C184.854 57.3352 184.535 56.9844 184.296 56.5128C184.06 56.0384 183.942 55.4389 183.942 54.7145C183.942 53.973 184.063 53.3537 184.305 52.8565C184.546 52.3594 184.867 51.9872 185.268 51.7401C185.671 51.4929 186.113 51.3693 186.593 51.3693C186.96 51.3693 187.266 51.4318 187.513 51.5568C187.761 51.679 187.96 51.8324 188.11 52.017C188.263 52.1989 188.381 52.3778 188.464 52.554H188.532V51.4545H190.335V58.0639C190.335 58.6207 190.198 59.0866 189.925 59.4616C189.653 59.8366 189.275 60.1179 188.792 60.3054C188.312 60.4957 187.759 60.5909 187.134 60.5909ZM187.173 56.5426C187.465 56.5426 187.712 56.4702 187.914 56.3253C188.119 56.1776 188.275 55.9673 188.383 55.6946C188.494 55.419 188.549 55.0895 188.549 54.706C188.549 54.3224 188.495 53.9901 188.387 53.7088C188.279 53.4247 188.123 53.2045 187.918 53.0483C187.714 52.892 187.465 52.8139 187.173 52.8139C186.874 52.8139 186.623 52.8949 186.418 53.0568C186.214 53.2159 186.059 53.4375 185.954 53.7216C185.849 54.0057 185.796 54.3338 185.796 54.706C185.796 55.0838 185.849 55.4105 185.954 55.6861C186.062 55.9588 186.217 56.1705 186.418 56.321C186.623 56.4687 186.874 56.5426 187.173 56.5426ZM195.857 53.696V55.1364H191.877V53.696H195.857ZM203.506 51.4545L201.218 58H199.173L196.884 51.4545H198.802L200.161 56.1378H200.229L201.585 51.4545H203.506ZM204.435 58V51.4545H206.251V58H204.435ZM205.347 50.6108C205.077 50.6108 204.846 50.5213 204.653 50.3423C204.462 50.1605 204.367 49.9432 204.367 49.6903C204.367 49.4403 204.462 49.2259 204.653 49.0469C204.846 48.8651 205.077 48.7741 205.347 48.7741C205.617 48.7741 205.847 48.8651 206.038 49.0469C206.231 49.2259 206.327 49.4403 206.327 49.6903C206.327 49.9432 206.231 50.1605 206.038 50.3423C205.847 50.5213 205.617 50.6108 205.347 50.6108ZM210.688 58.1278C210.015 58.1278 209.435 57.9915 208.949 57.7188C208.466 57.4432 208.094 57.054 207.833 56.5511C207.571 56.0455 207.441 55.4474 207.441 54.7571C207.441 54.0838 207.571 53.4929 207.833 52.9844C208.094 52.4759 208.462 52.0795 208.936 51.7955C209.414 51.5114 209.973 51.3693 210.615 51.3693C211.047 51.3693 211.449 51.4389 211.821 51.5781C212.196 51.7145 212.523 51.9205 212.801 52.196C213.083 52.4716 213.301 52.8182 213.458 53.2358C213.614 53.6506 213.692 54.1364 213.692 54.6932V55.1918H208.165V54.0668H211.983C211.983 53.8054 211.926 53.5739 211.813 53.3722C211.699 53.1705 211.542 53.0128 211.34 52.8991C211.141 52.7827 210.909 52.7244 210.645 52.7244C210.37 52.7244 210.125 52.7884 209.912 52.9162C209.702 53.0412 209.537 53.2102 209.418 53.4233C209.299 53.6335 209.238 53.8679 209.235 54.1264V55.196C209.235 55.5199 209.294 55.7997 209.414 56.0355C209.536 56.2713 209.708 56.4531 209.929 56.581C210.151 56.7088 210.414 56.7727 210.718 56.7727C210.919 56.7727 211.104 56.7443 211.272 56.6875C211.439 56.6307 211.583 56.5455 211.702 56.4318C211.821 56.3182 211.912 56.179 211.975 56.0142L213.654 56.125C213.569 56.5284 213.394 56.8807 213.13 57.1818C212.868 57.4801 212.53 57.7131 212.115 57.8807C211.703 58.0455 211.228 58.1278 210.688 58.1278ZM216.121 58L214.34 51.4545H216.176L217.191 55.8523H217.25L218.307 51.4545H220.11L221.184 55.8267H221.239L222.236 51.4545H224.069L222.292 58H220.37L219.245 53.8835H219.164L218.039 58H216.121Z" fill="#343537"/>
</svg>
